<svg xmlns="http://www.w3.org/2000/svg" width="2026" height="2026" viewBox="0 0 2026 2026">
  <defs>
    <style>
      .cls-1 {
        fill: #fff;
        stroke: #000;
        stroke-width: 100px;
      }

      .cls-1, .cls-2 {
        fill-rule: evenodd;
      }
    </style>
  </defs>
  <path id="Border" class="cls-1" d="M1887.53,1954.53C1996.8,1954.53,567,1955,567,1955c-105.486,0-191-85.51-191-191V391C376.015,166.624,111.157,68.952,148.952,68.952,37.589,68.952,1471,68,1471,68c105.49,0,191,85.514,191,191V1609C1662.46,1833.49,1925.33,1954.53,1887.53,1954.53Z"/>
  <path id="QR_Code" data-name="QR Code" class="cls-2" d="M1199,940h200v55H1199V940Zm141,55h59v141h-59V995Zm-259.56,384.83h55.75v111.51h-55.75V1379.83Zm55.75,56.64h57.52v54.87h-57.52v-54.87Zm57.52-56.64h58.4v56.64h-58.4v-56.64Zm0,111.51h58.4v56.64h-58.4v-56.64ZM638,940H837.984v54.869H696.4V1136.46H639.77Zm761,0H1199.02v54.869H1340.6V1136.46h56.63Zm0,0H1199.02v54.869H1340.6V1136.46h56.63ZM638,1694H837.984v-54.87H696.4V1497.54H639.77Zm761,0H1199.02v-54.87H1340.6V1497.54h56.63ZM766.308,1067.44H968.947v201.77H766.308V1067.44Zm38.05,38.05H932.666v126.55H804.358V1105.49Zm-38.05,257.53H968.947v201.77H766.308V1363.02Zm38.05,38.05H932.666v126.55H804.358V1401.07Zm260.152-333.63h202.64v201.77H1064.51V1067.44Zm38.05,38.05h128.31v126.55H1102.56V1105.49Z"/>
  <path id="Lines" class="cls-2" d="M585,520h860v62H585V520Zm0,186h860v62H585V706Zm0-372h860v62H585V334Z"/>
</svg>
